# xmcd
#
# Track frame offsets: 
#        150
#        13032
#        25197
#        48597
#        68841
#        87953
#        104380
#        119935
#        133044
#        149902
#        164589
#        182017
#        203465
#        221905
#        237423
#
# Disc length: 3391 seconds
#
# Revision: 0
# Processed by: cddbd v1.5.2PL0 Copyright (c) Steve Scherf et al.
# Submitted via: ExactAudioCopy v1.1
#
DISCID=e90d3d0f
DTITLE=Dana Winner - 30 - CD 2 (Favorieten)
DYEAR=2019
DGENRE=Chanson
TTITLE0=Dan Zal Ik Sterk Zijn
TTITLE1=1000 Keer
TTITLE2=Follow Your Heart
TTITLE3=Als Een Veer In De Wind
TTITLE4=Vrij Als Een Vogel
TTITLE5=Beter Van Niet
TTITLE6=House Of Cards
TTITLE7=The One
TTITLE8=I'm Not Supposed To Love You Anymore
TTITLE9=Turn The Page
TTITLE10=En De Wind Die Waait
TTITLE11=Jouw Liefde Is Alles
TTITLE12=Love Song About Me
TTITLE13=Alles In Beweging
TTITLE14=Mag Ik Je Nog Even
EXTD=
EXTT0=
EXTT1=
EXTT2=
EXTT3=
EXTT4=
EXTT5=
EXTT6=
EXTT7=
EXTT8=
EXTT9=
EXTT10=
EXTT11=
EXTT12=
EXTT13=
EXTT14=
PLAYORDER=
